<?xml version="1.0" standalone="no"?>
<!DOCTYPE svg PUBLIC "-//W3C//DTD SVG 20010904//EN"
 "http://www.w3.org/TR/2001/REC-SVG-20010904/DTD/svg10.dtd">
<svg version="1.0" xmlns="http://www.w3.org/2000/svg"
 width="700.000000pt" height="700.000000pt" viewBox="0 0 700.000000 700.000000"
 preserveAspectRatio="xMidYMid meet">
<metadata>
Created by potrace 1.11, written by Peter Selinger 2001-2013
</metadata>
<g transform="translate(0.000000,700.000000) scale(0.100000,-0.100000)"
fill="#000000" stroke="none">
<path d="M1100 5324 l0 -575 293 293 c160 161 419 420 575 575 l284 283 -576
0 -576 0 0 -576z"/>
<path d="M2174 5598 l-300 -303 0 -645 1 -645 375 0 375 0 0 948 0 947 -75 0
-75 0 -301 -302z"/>
<path d="M3389 5728 c0 -13 -1 -125 -2 -250 l-2 -228 251 0 251 0 0 250 1 250
-249 0 -249 0 -1 -22z"/>
<path d="M4025 5378 l0 -373 25 -2 c14 -1 120 -4 235 -6 116 -3 221 -8 235
-12 14 -3 44 -11 68 -16 23 -4 72 -20 109 -35 264 -106 415 -306 447 -594 3
-25 5 -111 5 -192 l1 -148 376 0 377 0 -6 238 c-3 130 -8 246 -10 257 -6 26
-20 107 -21 120 -6 63 -66 245 -117 350 -87 182 -203 321 -389 468 -109 86
-394 219 -540 252 -8 2 -53 12 -100 23 -127 30 -172 34 -445 39 l-250 5 0
-374z"/>
<path d="M3055 4850 l0 -250 250 0 250 0 0 248 0 247 -250 3 -250 2 0 -250z"/>
<path d="M2750 4250 l0 -250 250 0 250 0 0 250 0 250 -250 0 -250 0 0 -250z"/>
<path d="M2165 3863 c-338 -77 -393 -537 -84 -694 249 -125 540 55 540 334 0
63 -25 156 -53 195 -100 141 -246 201 -403 165z"/>
<path d="M2753 3620 c3 -140 8 -271 11 -290 3 -19 11 -64 17 -100 44 -259 160
-527 314 -725 200 -257 503 -429 845 -480 20 -3 47 -8 60 -11 14 -3 149 -8
300 -11 l275 -6 0 377 0 376 -190 1 c-231 2 -251 3 -340 23 -158 37 -311 142
-399 275 -48 72 -98 186 -116 266 -7 28 -14 59 -17 70 -3 11 -9 126 -12 255
l-6 235 -373 0 -374 0 5 -255z"/>
<path d="M5463 3869 c-58 -11 -126 -42 -175 -81 -44 -35 -105 -122 -119 -172
-72 -248 102 -486 355 -487 197 -1 353 142 372 339 23 238 -198 442 -433 401z"/>
<path d="M1879 2998 c-1 -2 -3 -163 -4 -358 -2 -195 -5 -364 -8 -375 -62 -239
-180 -364 -377 -401 -63 -12 -74 -12 -232 -13 l-158 -1 0 -376 0 -376 208 5
c114 4 216 8 227 10 94 17 268 59 280 67 6 4 28 13 50 20 22 7 79 32 128 56
363 178 575 489 623 914 4 36 8 237 8 448 l2 382 -373 0 c-205 0 -374 -1 -374
-2z"/>
<path d="M5150 2300 l0 -700 375 0 375 0 0 700 0 700 -375 0 -375 0 0 -700z"/>
<path d="M4690 2375 l0 -375 185 184 c102 102 185 187 185 190 0 3 -83 89
-185 191 l-185 186 0 -376z"/>
<path d="M5335 1305 c102 -102 188 -185 191 -185 3 0 89 83 190 185 l185 185
-376 0 -376 0 186 -185z"/>
</g>
</svg>
